<svg id="Ebene_1" data-name="Ebene 1" xmlns="http://www.w3.org/2000/svg" viewBox="0 0 94.49 94.75"><defs><style>.cls-1{fill:#8300ff;}</style></defs><path class="cls-1" d="M95.89,67.77,79.36,15.88,76.68,7.45a6.7,6.7,0,0,0-8.41-4.34L59.81,5.8,8,22.3a7.82,7.82,0,0,0-4.6,3.93,7.7,7.7,0,0,0-.54,6L19.34,84.11,22,92.58a6.7,6.7,0,0,0,8.4,4.34l8.47-2.7L90.8,77.69a8,8,0,0,0,5.14-9.94ZM34.14,79.45,20,34.81,64.56,20.6,78.77,65.2Z" transform="translate(-2.45 -2.79)"/><rect class="cls-1" x="78.82" y="79.08" width="15.67" height="15.67" rx="2.62"/></svg>